<?xml version="1.0" encoding="UTF-8" standalone="no"?>
<!DOCTYPE svg PUBLIC "-//W3C//DTD SVG 1.1//EN" "http://www.w3.org/Graphics/SVG/1.1/DTD/svg11.dtd">
<svg xmlns="http://www.w3.org/2000/svg" version="1.1" viewBox="0.00 0.00 113.00 53.00">
<path fill="#ffffff" d="
  M 72.95 13.39
  C 74.33 12.47 76.47 9.95 78.20 11.40
  A 1.36 1.35 -54.0 0 1 78.48 13.17
  Q 76.55 16.19 73.56 17.07
  Q 72.94 17.26 73.43 17.68
  Q 75.66 19.61 76.29 22.85
  A 1.15 1.15 0.0 0 1 74.45 23.97
  L 70.41 20.78
  A 0.50 0.49 30.5 0 0 69.65 20.97
  L 68.44 23.73
  Q 68.18 24.31 67.57 24.48
  Q 66.76 24.70 66.04 24.36
  A 1.21 1.20 20.1 0 1 65.39 22.97
  Q 67.01 16.74 68.65 10.58
  Q 69.69 6.64 73.89 7.05
  A 1.24 1.23 16.8 0 1 74.86 8.86
  L 72.61 13.09
  Q 72.17 13.91 72.95 13.39
  Z"
/>
<path fill="#ffffff" d="
  M 92.39 20.20
  L 91.55 22.62
  Q 91.02 24.15 89.41 24.02
  L 89.06 24.00
  Q 87.08 23.85 87.52 21.91
  Q 88.72 16.67 91.44 11.19
  C 92.84 8.37 95.46 7.15 98.39 7.46
  A 2.69 2.69 0.0 0 1 100.80 10.08
  Q 100.92 15.58 96.26 17.92
  A 0.48 0.47 54.5 0 0 96.14 18.68
  Q 97.60 20.18 98.49 22.23
  A 1.07 1.06 -6.6 0 1 97.32 23.70
  L 95.31 23.34
  A 1.35 1.34 -8.0 0 1 94.34 22.61
  L 93.12 20.15
  Q 92.70 19.29 92.39 20.20
  Z
  M 94.6626 14.3942
  A 2.17 0.71 121.3 0 0 96.3967 12.9089
  A 2.17 0.71 121.3 0 0 96.9174 10.6858
  A 2.17 0.71 121.3 0 0 95.1833 12.1711
  A 2.17 0.71 121.3 0 0 94.6626 14.3942
  Z"
/>
<path fill="#ffffff" d="
  M 22.67 40.28
  Q 19.03 44.58 12.96 45.44
  C 10.37 45.80 7.71 47.32 5.15 45.82
  Q 3.79 45.02 2.41 45.54
  Q 1.93 45.72 1.90 45.22
  C 1.77 43.16 5.21 41.99 6.76 41.44
  C 8.59 40.80 9.61 39.31 10.83 37.91
  Q 11.15 37.55 11.01 37.08
  Q 10.83 36.51 11.12 36.00
  Q 14.67 29.75 16.77 22.87
  Q 16.99 22.15 17.74 22.04
  L 19.00 21.85
  Q 19.56 21.76 19.67 21.21
  Q 19.77 20.75 20.04 20.38
  A 1.07 1.06 -65.3 0 1 21.11 19.98
  C 22.45 20.28 24.90 20.68 25.79 19.32
  Q 26.15 18.79 25.65 18.38
  C 24.11 17.09 22.18 15.71 22.33 13.41
  C 22.65 8.54 28.18 6.05 32.36 8.26
  A 1.21 1.20 34.4 0 1 32.71 10.11
  L 31.56 11.43
  Q 31.14 11.90 30.51 11.96
  L 28.35 12.16
  A 1.28 1.28 0.0 0 0 27.75 14.49
  Q 29.64 15.76 30.24 17.62
  Q 31.22 20.63 32.14 17.60
  C 32.99 14.79 33.66 11.22 35.85 9.15
  A 1.45 1.45 0.0 0 1 38.25 9.83
  L 39.21 13.48
  Q 39.45 14.38 39.80 13.51
  L 41.02 10.43
  Q 41.78 8.51 43.82 8.20
  L 44.44 8.11
  A 1.13 1.13 0.0 0 1 45.70 9.53
  Q 43.38 17.76 41.49 21.77
  Q 40.59 23.68 38.31 23.53
  Q 37.71 23.48 37.51 22.92
  Q 36.91 21.32 36.73 19.67
  Q 36.57 18.26 35.95 19.54
  L 34.23 23.03
  Q 34.00 23.49 34.37 23.86
  Q 36.04 25.50 35.95 27.80
  A 0.89 0.89 0.0 0 0 36.94 28.72
  L 40.99 28.26
  Q 41.13 28.24 41.14 28.38
  L 41.15 28.65
  Q 41.16 28.86 40.95 28.89
  L 37.83 29.25
  Q 36.17 29.44 36.95 30.92
  L 37.80 32.52
  Q 38.29 33.45 39.28 33.09
  Q 41.00 32.48 42.90 32.60
  Q 43.08 32.61 43.07 32.78
  L 43.07 32.79
  Q 43.06 32.98 42.87 32.98
  Q 40.03 32.86 37.97 34.32
  Q 36.07 35.66 38.38 35.39
  Q 39.24 35.28 40.05 35.37
  Q 40.81 35.45 40.12 35.78
  Q 39.33 36.16 38.49 36.15
  Q 37.97 36.14 37.48 36.32
  Q 30.25 38.95 23.82 43.23
  A 0.87 0.87 0.0 0 0 23.98 44.76
  Q 24.62 45.01 25.20 44.62
  Q 27.21 43.30 29.54 44.02
  A 0.85 0.83 31.3 0 0 30.36 43.83
  Q 31.39 42.91 32.88 43.17
  Q 33.84 43.33 32.91 43.63
  Q 25.64 45.94 18.82 47.18
  Q 18.23 47.29 17.74 47.64
  Q 16.86 48.26 15.83 48.08
  A 2.47 2.39 40.2 0 0 14.64 48.16
  Q 8.56 50.11 2.52 48.32
  Q 1.84 48.11 1.82 47.40
  L 1.81 46.80
  A 0.59 0.58 -86.3 0 1 2.48 46.21
  C 5.06 46.56 7.12 47.72 9.82 47.16
  Q 15.24 46.03 18.98 44.23
  Q 21.47 43.03 22.93 40.68
  Q 23.01 40.54 22.89 40.44
  L 22.69 40.28
  Q 22.68 40.27 22.67 40.28
  Z
  M 29.57 24.94
  Q 30.06 24.91 30.15 24.44
  Q 30.26 23.83 29.70 24.09
  L 29.34 24.25
  Q 28.75 24.52 28.15 24.28
  Q 27.54 24.03 26.92 23.83
  Q 26.14 23.58 26.78 24.10
  Q 27.96 25.05 29.57 24.94
  Z
  M 30.88 31.42
  L 24.22 37.34
  Q 24.10 37.45 24.21 37.57
  L 24.44 37.84
  Q 24.58 37.99 24.73 37.85
  Q 29.82 33.04 35.76 29.49
  Q 35.94 29.38 35.85 29.20
  L 35.71 28.94
  Q 35.55 28.61 35.23 28.81
  Q 33.76 29.76 32.16 30.96
  Q 32.08 31.02 32.02 30.95
  L 32.01 30.94
  Q 31.87 30.78 32.04 30.64
  Q 33.60 29.36 35.28 27.93
  Q 35.73 27.54 35.54 26.98
  Q 35.04 25.56 33.72 24.32
  Q 33.35 23.98 33.31 24.48
  Q 33.25 25.27 33.71 25.81
  Q 34.06 26.22 33.78 26.68
  Q 31.92 29.75 29.07 31.43
  A 0.12 0.11 57.4 0 0 29.04 31.60
  L 29.19 31.81
  Q 29.45 32.15 29.72 31.83
  Q 30.09 31.39 30.75 31.19
  Q 31.34 31.01 30.88 31.42
  Z
  M 20.89 26.88
  C 21.77 26.24 22.56 25.79 23.62 25.60
  Q 24.16 25.51 23.90 25.02
  Q 23.82 24.87 23.67 24.78
  Q 23.25 24.55 22.85 24.78
  Q 21.52 25.51 20.65 26.63
  Q 19.90 27.59 20.89 26.88
  Z
  M 32.9979 26.0732
  A 0.97 0.38 -33.6 0 0 31.9797 26.2935
  A 0.97 0.38 -33.6 0 0 31.3821 27.1468
  A 0.97 0.38 -33.6 0 0 32.4003 26.9265
  A 0.97 0.38 -33.6 0 0 32.9979 26.0732
  Z
  M 18.74 35.28
  A 0.39 0.39 0.0 0 0 18.91 35.86
  L 22.95 37.59
  A 0.39 0.39 0.0 0 0 23.41 37.48
  L 30.75 28.70
  A 0.39 0.39 0.0 0 0 30.55 28.07
  L 25.21 26.64
  A 0.39 0.39 0.0 0 0 24.79 26.79
  L 18.74 35.28
  Z
  M 19.77 27.68
  A 0.07 0.01 -55.9 0 0 19.72 27.73
  L 18.15 30.22
  Q 17.95 30.53 18.31 30.61
  L 18.80 30.71
  Q 19.12 30.78 19.18 30.46
  Q 19.41 29.18 20.05 28.11
  Q 20.16 27.93 19.99 27.82
  L 19.77 27.68
  Z
  M 16.62 32.37
  A 5.96 4.56 82.4 0 1 16.19 33.12
  Q 15.50 34.15 14.48 35.10
  Q 13.81 35.71 14.63 35.32
  L 15.49 34.91
  Q 15.99 34.67 16.21 34.18
  Q 16.71 33.11 17.63 32.38
  Q 17.74 32.28 17.67 32.15
  Q 17.60 32.03 17.59 31.90
  Q 17.57 31.26 17.11 31.70
  Q 16.80 31.99 16.62 32.37
  Z
  M 18.88 38.38
  Q 17.55 40.28 14.87 41.28
  Q 14.83 41.29 14.85 41.33
  L 15.00 41.62
  Q 15.22 42.04 15.61 41.76
  L 20.53 38.18
  Q 20.69 38.07 20.82 38.21
  Q 22.37 39.87 24.23 40.68
  Q 24.75 40.91 25.22 40.60
  Q 29.72 37.72 34.18 35.19
  C 35.25 34.58 36.21 33.54 36.95 32.57
  Q 37.06 32.43 36.95 32.28
  L 36.76 32.02
  A 0.28 0.28 0.0 0 0 36.31 32.02
  Q 34.72 34.26 32.39 35.39
  Q 28.67 37.19 25.50 39.79
  Q 25.36 39.90 25.19 39.92
  Q 24.99 39.95 24.78 39.91
  Q 24.16 39.78 24.29 39.16
  Q 24.35 38.89 24.08 38.73
  Q 23.66 38.46 23.39 38.88
  Q 23.28 39.05 23.09 39.10
  Q 22.63 39.21 22.30 38.87
  Q 21.02 37.52 18.93 37.17
  Q 18.43 37.08 18.83 37.40
  Q 19.30 37.77 18.88 38.38
  Z
  M 15.29 36.09
  Q 13.84 35.48 12.83 36.55
  Q 12.30 37.10 13.07 37.09
  L 16.99 37.02
  Q 17.95 37.00 17.15 36.48
  Q 16.64 36.16 16.01 36.21
  Q 15.64 36.23 15.29 36.09
  Z"
/>
<path fill="#ffffff" d="
  M 49.03 20.53
  L 51.64 20.49
  Q 52.21 20.48 52.47 20.98
  Q 52.87 21.75 52.68 22.55
  A 1.30 1.30 0.0 0 1 52.05 23.39
  Q 48.94 25.12 45.00 24.08
  A 1.12 1.11 9.5 0 1 44.17 22.93
  L 44.40 19.18
  A 0.56 0.47 39.6 0 0 44.35 18.92
  Q 44.26 18.75 44.08 18.68
  Q 43.12 18.30 44.15 18.33
  Q 44.43 18.34 44.55 18.08
  Q 46.30 14.11 47.81 9.43
  Q 47.97 8.92 48.46 8.72
  Q 51.49 7.47 54.52 7.51
  A 1.47 1.47 0.0 0 1 55.80 9.67
  C 54.39 12.26 51.18 10.87 50.54 14.24
  A 0.45 0.45 0.0 0 0 51.03 14.77
  L 52.74 14.56
  Q 53.23 14.51 53.24 15.00
  C 53.34 18.68 49.02 16.41 48.54 19.97
  Q 48.46 20.53 49.03 20.53
  Z"
/>
<path fill="#ffffff" d="
  M 60.46 20.97
  Q 58.40 21.76 57.24 23.32
  Q 56.73 24.01 56.04 24.32
  C 54.90 24.82 53.69 23.86 53.83 22.64
  Q 53.95 21.50 54.35 20.42
  Q 57.09 13.09 61.76 8.40
  Q 63.67 6.49 65.62 8.54
  A 2.93 2.91 -62.0 0 1 66.38 11.05
  L 64.29 23.18
  Q 64.15 23.98 63.35 24.15
  Q 62.47 24.33 61.57 24.07
  Q 60.69 23.81 60.82 22.91
  L 61.03 21.42
  Q 61.13 20.71 60.46 20.97
  Z
  M 60.16 18.53
  Q 60.36 18.68 60.61 18.73
  Q 61.13 18.85 61.26 18.34
  Q 61.72 16.52 61.75 14.79
  Q 61.77 13.28 61.26 14.70
  L 60.03 18.08
  A 0.40 0.39 29.3 0 0 60.16 18.53
  Z"
/>
<path fill="#ffffff" d="
  M 82.73 20.52
  L 85.25 20.49
  A 0.78 0.77 -13.9 0 1 85.96 20.91
  C 86.48 21.90 86.43 23.10 85.29 23.59
  Q 81.75 25.12 78.39 23.99
  Q 77.65 23.74 77.65 22.96
  Q 77.67 17.69 80.24 12.78
  C 80.76 11.77 81.07 10.68 81.21 9.55
  Q 81.27 9.07 81.72 8.86
  Q 84.91 7.39 88.37 7.53
  A 1.16 1.15 82.7 0 1 89.41 8.34
  Q 89.60 8.97 89.36 9.49
  Q 88.58 11.17 86.76 11.53
  Q 84.52 11.99 84.06 14.21
  Q 83.93 14.84 84.58 14.77
  L 86.08 14.61
  Q 86.94 14.52 86.69 15.35
  Q 86.10 17.36 83.98 17.50
  Q 83.00 17.57 82.61 18.47
  L 82.12 19.60
  Q 81.71 20.53 82.73 20.52
  Z"
/>
<path fill="#ffffff" d="
  M 104.80 18.28
  C 102.98 16.69 100.86 15.22 101.71 12.37
  Q 103.17 7.48 108.94 7.45
  Q 110.90 7.44 112.14 8.92
  Q 112.39 9.21 112.22 9.55
  Q 110.83 12.46 107.93 12.10
  A 1.23 1.23 0.0 0 0 106.80 12.57
  C 106.21 13.33 106.69 14.37 107.39 14.84
  Q 109.96 16.56 109.55 19.20
  C 108.93 23.22 104.46 24.80 100.88 23.87
  Q 98.99 23.37 98.87 21.45
  A 1.38 1.37 -85.1 0 1 100.55 20.03
  Q 102.33 20.44 104.34 20.02
  A 1.01 1.01 0.0 0 0 104.80 18.28
  Z"
/>
<ellipse fill="#ffffff" cx="0.00" cy="0.00" transform="translate(41.72,25.87) rotate(-8.8)" rx="1.68" ry="0.15"/>
<ellipse fill="#ffffff" cx="0.00" cy="0.00" transform="translate(43.95,27.75) rotate(-1.0)" rx="1.73" ry="0.22"/>
<path fill="#ffffff" d="
  M 55.64 41.19
  L 54.62 44.17
  Q 54.28 45.18 53.22 45.06
  L 51.84 44.91
  A 1.28 1.27 -81.3 0 1 50.73 43.39
  Q 51.96 37.21 55.21 31.32
  C 56.95 28.16 64.46 26.28 64.01 32.21
  Q 63.66 36.79 59.58 38.90
  Q 59.01 39.19 59.42 39.68
  Q 60.52 40.97 61.46 42.47
  Q 62.12 43.51 61.47 44.41
  Q 61.13 44.88 60.56 44.75
  L 58.43 44.25
  A 1.27 1.25 82.5 0 1 57.59 43.59
  L 56.35 41.14
  Q 55.94 40.33 55.64 41.19
  Z
  M 57.9884 35.3201
  A 2.10 0.74 121.0 0 0 59.7043 33.9011
  A 2.10 0.74 121.0 0 0 60.1516 31.7199
  A 2.10 0.74 121.0 0 0 58.4357 33.1389
  A 2.10 0.74 121.0 0 0 57.9884 35.3201
  Z"
/>
<path fill="#ffffff" d="
  M 46.03 41.91
  Q 43.65 42.90 42.34 44.77
  A 1.66 1.66 0.0 0 1 39.41 44.36
  Q 38.99 43.13 39.60 41.75
  Q 42.29 35.65 43.24 34.22
  C 44.67 32.08 47.75 27.33 50.72 28.93
  Q 51.28 29.23 51.27 29.87
  Q 51.27 30.60 51.67 31.22
  A 1.45 1.44 33.8 0 1 51.88 32.26
  L 49.81 44.00
  A 1.41 1.39 -3.1 0 1 48.80 45.11
  Q 47.94 45.35 47.05 45.05
  Q 46.23 44.78 46.33 43.93
  L 46.53 42.30
  Q 46.61 41.67 46.03 41.91
  Z
  M 46.86 38.81
  Q 47.27 37.00 47.37 35.42
  Q 47.43 34.62 47.05 35.33
  Q 45.98 37.32 45.48 39.37
  A 0.34 0.34 0.0 0 0 45.87 39.79
  Q 46.68 39.64 46.86 38.81
  Z"
/>
<path fill="#ffffff" d="
  M 68.00 41.52
  L 70.72 41.49
  Q 71.21 41.48 71.45 41.92
  Q 72.30 43.48 71.04 44.34
  Q 68.40 46.15 63.93 45.02
  Q 63.35 44.87 63.28 44.28
  C 62.81 40.73 64.24 36.55 65.98 33.25
  C 66.40 32.45 66.53 31.69 66.57 30.80
  A 1.11 1.10 79.9 0 1 67.24 29.83
  Q 70.51 28.41 73.62 28.53
  A 1.42 1.41 -75.2 0 1 74.82 30.60
  C 73.43 33.27 70.54 31.79 69.60 34.99
  Q 69.36 35.83 70.23 35.74
  L 71.68 35.59
  Q 72.47 35.51 72.23 36.27
  Q 71.53 38.43 69.33 38.55
  A 1.28 1.28 0.0 0 0 68.34 39.10
  Q 67.73 39.96 67.54 40.97
  Q 67.43 41.53 68.00 41.52
  Z"
/>
<path fill="#ffffff" d="
  M 79.32 42.07
  L 77.37 43.07
  A 1.56 1.56 0.0 0 0 76.69 43.75
  Q 76.11 44.95 74.88 45.36
  A 1.62 1.62 0.0 0 1 72.80 43.43
  C 73.81 39.44 77.66 30.82 82.04 28.65
  A 1.92 1.91 70.8 0 1 84.77 29.97
  Q 84.90 30.60 85.19 31.19
  A 1.76 1.72 37.4 0 1 85.34 32.23
  L 83.35 44.00
  A 1.43 1.42 -2.3 0 1 82.30 45.13
  Q 81.45 45.35 80.55 45.07
  A 1.03 1.03 0.0 0 1 79.82 43.94
  L 80.01 42.55
  Q 80.13 41.65 79.32 42.07
  Z
  M 79.32 39.61
  L 79.64 39.73
  Q 80.10 39.90 80.23 39.42
  Q 80.78 37.53 80.78 35.59
  Q 80.78 34.69 80.40 35.50
  Q 79.61 37.17 79.04 39.04
  Q 78.91 39.46 79.32 39.61
  Z"
/>
<ellipse fill="#ffffff" cx="0.00" cy="0.00" transform="translate(24.24,31.86) rotate(117.3)" rx="2.73" ry="0.33"/>
</svg>
